<?xml version="1.0" standalone="no"?>
<!DOCTYPE svg PUBLIC "-//W3C//DTD SVG 20010904//EN"
 "http://www.w3.org/TR/2001/REC-SVG-20010904/DTD/svg10.dtd">
<svg version="1.0" xmlns="http://www.w3.org/2000/svg"
 width="180.000000pt" height="180.000000pt" viewBox="0 0 180.000000 180.000000"
 preserveAspectRatio="xMidYMid meet">
<metadata>
Created by potrace 1.11, written by Peter Selinger 2001-2013
</metadata>
<g transform="translate(0.000000,180.000000) scale(0.100000,-0.100000)"
fill="#000000" stroke="none">
<path d="M705 1733 c-97 -18 -147 -80 -151 -187 -4 -89 -15 -116 -74 -176 -38
-39 -87 -60 -142 -60 -130 0 -215 -132 -164 -254 15 -35 72 -87 103 -93 44 -9
94 -5 117 11 14 9 26 13 26 9 0 -12 54 66 58 85 2 9 7 49 12 88 9 77 17 97 69
155 77 88 228 93 314 11 51 -49 69 -89 78 -173 7 -70 31 -138 52 -147 4 -2 14
-10 22 -19 8 -8 15 -11 15 -7 0 3 6 2 13 -4 16 -14 107 -22 107 -10 0 5 4 7 8
4 14 -9 84 55 98 90 20 48 17 118 -6 164 -29 57 -67 80 -153 89 -87 10 -104
18 -157 74 -44 46 -62 97 -63 170 0 26 -4 47 -9 47 -5 0 -6 4 -3 10 7 11 -11
48 -34 71 -35 34 -100 58 -136 52z"/>
<path d="M1084 1728 c-3 -5 -11 -7 -18 -5 -19 7 -83 -54 -100 -95 -22 -51 -20
-104 5 -155 30 -62 66 -84 156 -94 41 -4 86 -15 98 -23 36 -24 83 -78 101
-116 18 -36 24 -165 10 -188 -4 -7 -5 -12 -2 -12 9 0 -20 -48 -52 -84 -17 -20
-36 -36 -42 -36 -5 0 -10 -4 -10 -9 0 -11 -79 -31 -125 -31 -51 0 -112 -42
-136 -93 -24 -55 -24 -97 2 -158 26 -60 72 -93 144 -103 11 -1 26 3 34 8 8 6
16 10 18 8 5 -4 82 40 81 47 -1 3 6 23 15 43 10 21 17 58 17 83 0 25 7 61 14
80 8 19 13 35 10 35 -3 0 4 10 16 22 11 12 20 25 20 29 0 4 22 21 50 39 38 25
62 32 108 35 70 3 112 23 148 70 23 31 27 46 27 103 1 113 -51 167 -171 179
-31 3 -70 12 -87 21 -38 18 -95 72 -95 89 0 7 -4 13 -8 13 -14 0 -32 72 -32
124 0 57 -29 117 -71 148 -17 13 -34 23 -37 22 -4 0 -24 3 -45 6 -21 4 -40 3
-43 -2z"/>
<path d="M661 1294 c-35 -15 -90 -65 -92 -84 -3 -19 -4 -25 -10 -35 -3 -5 -5
-32 -4 -60 2 -39 -4 -62 -28 -105 -16 -30 -42 -65 -56 -78 -30 -26 -109 -52
-159 -52 -84 0 -152 -77 -152 -172 0 -107 74 -176 191 -182 58 -2 89 -16 131
-57 54 -55 66 -84 73 -174 5 -66 13 -99 25 -103 5 -2 10 -10 10 -18 0 -14 58
-55 71 -51 3 1 12 -3 20 -9 21 -18 91 -6 133 21 61 40 90 142 60 213 -31 74
-85 112 -161 112 -84 0 -175 65 -208 147 -12 30 -16 63 -13 117 4 66 9 81 41
130 44 66 99 99 172 102 28 1 62 7 76 12 48 19 108 90 94 112 -3 5 -1 11 4 15
15 8 7 85 -12 125 -10 20 -31 44 -47 54 -17 9 -30 20 -30 24 0 14 -96 11 -129
-4z"/>
<path d="M676 880 c-15 -5 -36 -16 -45 -24 -10 -9 -20 -14 -23 -11 -2 3 -16
-18 -30 -46 -38 -78 -30 -156 24 -212 36 -38 64 -50 118 -52 51 -2 100 -15
100 -26 0 -6 4 -8 9 -5 5 3 26 -10 47 -29 21 -19 34 -35 28 -35 -5 0 -4 -4 2
-8 18 -12 44 -90 44 -132 0 -71 45 -154 95 -175 53 -22 77 -24 113 -9 18 7 36
14 40 15 10 2 56 39 48 39 -4 0 1 11 10 25 9 14 20 61 25 105 12 108 56 179
129 212 34 15 47 18 108 22 30 2 61 11 71 20 10 9 20 13 24 10 3 -4 12 5 18
20 7 14 16 26 21 26 4 0 8 9 8 20 0 11 4 20 9 20 14 0 5 114 -12 147 -33 63
-118 102 -184 83 -38 -10 -93 -51 -93 -69 0 -5 -4 -11 -9 -13 -6 -2 -12 -16
-15 -33 -2 -16 -5 -30 -7 -30 -1 0 -3 -19 -4 -42 -1 -23 -6 -54 -10 -70 -5
-15 -9 -31 -9 -35 -2 -15 -76 -87 -105 -103 -50 -26 -121 -30 -179 -11 -54 18
-115 68 -126 104 -4 12 -10 22 -14 22 -4 0 -8 19 -10 43 -2 23 -5 58 -6 77 -6
73 -60 142 -125 160 -41 11 -46 11 -85 0z"/>
</g>
</svg>
